<?xml version="1.0" encoding="UTF-8" standalone="no"?>
<svg
   xmlns:dc="http://purl.org/dc/elements/1.1/"
   xmlns:cc="http://creativecommons.org/ns#"
   xmlns:rdf="http://www.w3.org/1999/02/22-rdf-syntax-ns#"
   xmlns:svg="http://www.w3.org/2000/svg"
   xmlns="http://www.w3.org/2000/svg"
   xmlns:sodipodi="http://sodipodi.sourceforge.net/DTD/sodipodi-0.dtd"
   xmlns:inkscape="http://www.inkscape.org/namespaces/inkscape"
   width="210mm"
   height="297mm"
   viewBox="0 0 210 297"
   version="1.1"
   id="svg8"
   sodipodi:docname="map.svg"
   inkscape:version="1.0 (4035a4f, 2020-05-01)">
  <defs
     id="defs2">
    <inkscape:path-effect
       effect="bspline"
       id="path-effect72"
       is_visible="true"
       lpeversion="1"
       weight="33.333333"
       steps="2"
       helper_size="0"
       apply_no_weight="true"
       apply_with_weight="true"
       only_selected="false" />
    <inkscape:path-effect
       effect="bspline"
       id="path-effect68"
       is_visible="true"
       lpeversion="1"
       weight="33.333333"
       steps="2"
       helper_size="0"
       apply_no_weight="true"
       apply_with_weight="true"
       only_selected="false" />
    <inkscape:path-effect
       effect="bspline"
       id="path-effect64"
       is_visible="true"
       lpeversion="1"
       weight="33.333333"
       steps="2"
       helper_size="0"
       apply_no_weight="true"
       apply_with_weight="true"
       only_selected="false" />
    <inkscape:path-effect
       effect="bspline"
       id="path-effect60"
       is_visible="true"
       lpeversion="1"
       weight="33.333333"
       steps="2"
       helper_size="0"
       apply_no_weight="true"
       apply_with_weight="true"
       only_selected="false" />
    <inkscape:path-effect
       effect="bspline"
       id="path-effect56"
       is_visible="true"
       lpeversion="1"
       weight="33.333333"
       steps="2"
       helper_size="0"
       apply_no_weight="true"
       apply_with_weight="true"
       only_selected="false" />
    <inkscape:path-effect
       effect="bspline"
       id="path-effect52"
       is_visible="true"
       lpeversion="1"
       weight="33.333333"
       steps="2"
       helper_size="0"
       apply_no_weight="true"
       apply_with_weight="true"
       only_selected="false" />
    <inkscape:path-effect
       effect="bspline"
       id="path-effect48"
       is_visible="true"
       lpeversion="1"
       weight="33.333333"
       steps="2"
       helper_size="0"
       apply_no_weight="true"
       apply_with_weight="true"
       only_selected="false" />
    <inkscape:path-effect
       effect="bspline"
       id="path-effect30"
       is_visible="true"
       lpeversion="1"
       weight="33.333333"
       steps="2"
       helper_size="0"
       apply_no_weight="true"
       apply_with_weight="true"
       only_selected="false" />
    <inkscape:path-effect
       effect="bspline"
       id="path-effect26"
       is_visible="true"
       lpeversion="1"
       weight="33.333333"
       steps="2"
       helper_size="0"
       apply_no_weight="true"
       apply_with_weight="true"
       only_selected="false" />
  </defs>
  <sodipodi:namedview
     id="base"
     pagecolor="#ffffff"
     bordercolor="#666666"
     borderopacity="1.0"
     inkscape:pageopacity="0.0"
     inkscape:pageshadow="2"
     inkscape:zoom="0.69004434"
     inkscape:cx="150.85901"
     inkscape:cy="60.684004"
     inkscape:document-units="mm"
     inkscape:current-layer="layer1"
     inkscape:document-rotation="0"
     showgrid="false"
     inkscape:window-width="1440"
     inkscape:window-height="801"
     inkscape:window-x="0"
     inkscape:window-y="23"
     inkscape:window-maximized="0" />
  <metadata
     id="metadata5">
    <rdf:RDF>
      <cc:Work
         rdf:about="">
        <dc:format>image/svg+xml</dc:format>
        <dc:type
           rdf:resource="http://purl.org/dc/dcmitype/StillImage" />
      </cc:Work>
    </rdf:RDF>
  </metadata>
  <g
     inkscape:label="Layer 1"
     inkscape:groupmode="layer"
     id="layer1">
    <path
       style="fill:none;stroke:#000000;stroke-width:0.264583px;stroke-linecap:butt;stroke-linejoin:miter;stroke-opacity:1"
       d="m 27.796536,23.05565 c 0.782084,-0.47685 2.346173,-1.430502 3.82773,-1.959124 1.481557,-0.528622 2.880353,-0.632237 4.136756,-0.476739 1.256402,0.155498 2.370258,0.569956 3.069619,0.984519 0.699361,0.414564 0.984302,0.829023 1.048935,1.385916 0.06463,0.556894 -0.09079,1.256293 -0.272126,1.813191 -0.181336,0.556899 -0.388566,0.971358 -0.188889,1.409021 0.199676,0.437664 0.888647,0.961282 1.209579,1.339631 0.320933,0.37835 0.315493,0.642828 0.185972,0.901745 -0.12952,0.258917 -0.383115,0.512511 -0.885509,0.911293 -0.502394,0.398782 -1.253602,0.94276 -2.004879,1.86243 -0.751276,0.91967 -1.502483,2.214854 -1.81325,3.04391 -0.310768,0.829056 -0.181249,1.191707 -0.05176,1.761597 0.12949,0.569889 0.259008,1.347001 0.518184,1.852078 0.259176,0.505077 0.647732,0.738211 0.906633,1.541304 0.258901,0.803093 0.38842,2.175987 0.802998,3.289877 0.414579,1.113889 1.113978,1.96871 2.189037,3.043727 1.07506,1.075017 2.525665,2.3702 3.84681,3.250885 1.321145,0.880685 2.512715,1.346951 3.2471,1.500448 0.734386,0.153496 1.011784,-0.0056 1.633603,0.279483 0.621818,0.285087 1.587791,1.014071 2.276653,1.237629 0.688861,0.223558 1.100806,-0.05804 1.502359,0.330707 0.401553,0.388749 0.792614,1.447466 1.455635,2.232226 0.663021,0.78476 1.597733,1.295655 2.246947,1.459254 0.649214,0.163599 1.013052,-0.0199 1.180784,-0.313136 0.167732,-0.293234 0.139436,-0.696524 -0.177518,-1.046739 -0.316955,-0.350215 -0.922822,-0.647192 -1.296511,-1.049136 -0.37369,-0.401945 -0.514915,-0.908956 -0.562229,-1.447883 -0.04731,-0.538928 -5.99e-4,-1.109639 -0.184337,-1.395121 -0.183738,-0.285483 -0.598197,-0.285483 -1.206535,-0.296754 -0.608338,-0.01127 -1.410509,-0.03382 -1.529827,-0.47741 -0.119319,-0.443589 0.44454,-1.30822 0.65144,-1.957391 0.206901,-0.649171 0.05666,-1.083059 -0.264504,-1.261324 -0.321162,-0.178266 -0.813332,-0.100555 -1.193836,0.161253 -0.380504,0.261808 -0.649055,0.707577 -1.108988,1.030352 -0.459934,0.322776 -1.11141,0.522649 -1.663535,0.468262 -0.552126,-0.05439 -1.004975,-0.363292 -1.322192,-0.971032 -0.317217,-0.60774 -0.498541,-1.514366 -0.343168,-2.447029 0.155373,-0.932663 0.647542,-1.891098 1.329063,-2.641984 0.68152,-0.750886 1.552208,-1.294026 2.381281,-1.384597 0.829073,-0.09057 1.616206,0.271253 2.123234,0.192272 0.507028,-0.07898 0.734296,-0.598722 1.142239,-0.747055 0.407943,-0.148334 0.99614,0.07476 1.442389,0.2831 0.446248,0.208338 0.750514,0.401819 0.964359,0.731543 0.213845,0.329724 0.337471,0.795541 0.48788,1.237336 0.150408,0.441795 0.327632,0.859756 0.592849,1.105602 0.265217,0.245847 0.618622,0.320308 0.895006,0.233668 0.276383,-0.08664 0.475591,-0.334024 0.553026,-0.669987 0.07744,-0.335962 0.03281,-0.760099 -0.105077,-1.390894 -0.137891,-0.630794 -0.369079,-1.468041 -0.297254,-1.987125 0.07182,-0.519084 0.44665,-0.719584 1.165097,-1.169544 0.718447,-0.449961 1.780498,-1.14936 2.252943,-1.834194 0.472446,-0.684834 0.355284,-1.355395 0.795687,-1.951379 0.440403,-0.595985 1.438293,-1.116981 2.222232,-1.468151 0.783938,-0.35117 1.353818,-0.532496 1.729322,-0.817362 0.375503,-0.284866 0.556829,-0.673421 1.451669,-0.852845 0.89484,-0.179425 2.502764,-0.149603 3.290805,-0.443386 0.788041,-0.293783 0.756352,-0.911408 0.52298,-1.418478 -0.233371,-0.507069 -0.668659,-0.903498 -0.291199,-1.399825 0.377459,-0.496327 1.567815,-1.092199 2.626878,-1.432106 1.059063,-0.339906 1.986621,-0.423862 2.536235,-0.860474 0.549615,-0.436612 0.721499,-1.226046 0.538396,-1.715525 -0.183103,-0.489479 -0.721533,-0.678856 -0.982105,-1.142258 -0.260571,-0.463402 -0.24323,-1.188311 -0.607486,-1.491081 -0.364255,-0.30277 -1.085796,-0.162719 -1.595277,-0.194964 -0.509481,-0.03224 -0.794422,-0.239475 -0.891485,-0.600933 -0.09706,-0.361458 -0.0059,-0.877102 -0.50648,-1.236424 -0.500571,-0.359321 -1.593171,-0.562125 -2.292412,-0.375569 -0.69924,0.186557 -1.004729,0.762405 -1.32856,1.206164 -0.323831,0.443758 -0.666038,0.75549 -0.753102,1.067458 -0.08706,0.311967 0.08086,0.623824 -0.219075,1.043467 -0.299933,0.419644 -1.067578,0.9474 -1.619394,1.559212 -0.551815,0.611812 -0.88766,1.307492 -1.19942,1.703236 -0.31176,0.395745 -0.599626,0.4917 -0.851508,0.347944 -0.251883,-0.143756 -0.467783,-0.52758 -0.585584,-1.131591 -0.117801,-0.604012 -0.137327,-1.428109 -0.856758,-1.923388 -0.719432,-0.495279 -2.138966,-0.661441 -2.60917,-1.136974 -0.470204,-0.475533 0.0093,-1.260434 0.80326,-1.924105 0.793933,-0.66367 1.940768,-1.224888 3.116329,-1.548729 1.175561,-0.323841 2.398998,-0.419796 3.754415,-0.52775 1.355418,-0.107954 2.842731,-0.227899 4.078231,0.02411 1.235499,0.252003 2.219046,0.875715 2.974579,0.971558 0.755532,0.09584 1.283289,-0.335957 1.916903,-0.806847 0.633615,-0.470889 1.285568,-0.920512 1.561909,-1.419189 0.27634,-0.498676 0.133306,-1.016564 -0.544847,-1.627333 -0.678153,-0.61077 -1.891571,-1.314216 -2.476756,-1.937282 -0.585185,-0.623065 -0.541738,-1.165741 -6.01e-4,-1.64893 0.541137,-0.483189 1.579739,-0.906538 2.404264,-1.151995 0.824526,-0.245458 1.43477,-0.313018 1.775794,-0.154714 0.341024,0.158304 0.412991,0.542126 0.976851,0.709894 0.563861,0.167768 1.619373,0.11979 2.27911,0.119823 0.659737,3.4e-5 0.923615,0.04801 1.355366,0.623899 0.43175,0.575887 1.031474,1.679379 1.307243,2.327031 0.275769,0.647652 0.227791,0.839564 -0.155985,1.151314 -0.383776,0.311751 -1.103444,0.743552 -1.451323,1.235502 -0.347879,0.49195 -0.323889,1.043696 -0.262165,1.592977 0.06172,0.54928 0.154226,1.058037 0.550189,1.501776 0.395963,0.443738 1.091642,0.803573 1.690328,0.867023 0.598686,0.06345 1.100555,-0.169269 1.520293,-0.68496 0.419738,-0.515692 0.757482,-1.314497 1.058354,-1.80995 0.300871,-0.495452 0.564749,-0.687363 1.140576,-0.891282 0.575826,-0.203919 1.463415,-0.419819 2.231034,-0.707698 0.76762,-0.287879 1.41532,-0.647712 2.327009,-0.863601 0.911689,-0.215888 2.087148,-0.287855 2.902704,-0.467793 0.815557,-0.179938 1.271347,-0.467805 1.951015,-1.358506 0.679669,-0.890701 1.583249,-2.384233 2.307769,-3.190764 0.72451,-0.8065308 1.26953,-0.9257746 1.57745,-1.1777786 0.30792,-0.2520039 0.37882,-0.6368723 0.17617,-0.9530611 -0.20266,-0.3161887 -0.67916,-0.5634793 -1.499,-0.6681659 -0.81984,-0.1046866 -1.98285,-0.066568 -2.864273,0.024442 -0.881424,0.09101 -1.481147,0.2349441 -2.140814,0.270965 -0.659667,0.036021 -1.379336,-0.035946 -2.434926,0.05998 -1.055589,0.095926 -2.446949,0.3598049 -4.198154,0.3478472 -1.751204,-0.011958 -3.862232,-0.2998252 -5.925373,-0.3478337 -2.06314,-0.048008 -4.078211,0.1439031 -6.025864,0.2646056 -1.947653,0.1207026 -3.82775,0.1701733 -5.154829,0.5952628 -1.327079,0.4250896 -2.100708,1.2257326 -2.827866,1.8486996 -0.727158,0.622967 -1.407837,1.068239 -2.659715,1.386847 -1.251877,0.318608 -3.075038,0.510519 -4.826252,0.474568 -1.751213,-0.03595 -3.430439,-0.299829 -4.629948,-0.395822 -1.199509,-0.09599 -1.919179,-0.02402 -2.578967,0.179875 -0.659788,0.203901 -1.259514,0.539747 -1.643412,0.839677 -0.383898,0.299929 -0.551821,0.563807 -1.235404,0.80365 -0.683583,0.239843 -1.883032,0.455744 -3.094498,0.623679 -1.211465,0.167934 -2.4349,0.287879 -3.658341,0.239936 -1.223441,-0.04794 -2.446876,-0.263843 -3.778315,-0.419792 -1.331438,-0.15595 -2.770775,-0.251906 -4.246175,-0.167968 -1.4754,0.08394 -2.986703,0.347816 -4.006298,0.587703 -1.019595,0.239888 -1.547354,0.455789 -1.811304,0.65986 -0.26395,0.204072 -0.26395,0.395983 -0.719685,0.659711 -0.455735,0.263728 -1.367315,0.599573 -1.847202,0.851579 -0.479888,0.252005 -0.527865,0.419926 -0.580701,0.614056 -0.05284,0.194129 -0.110529,0.414444 -0.182498,0.594313 -0.07197,0.179869 -0.158208,0.319386 -0.501136,0.557015 -0.342928,0.237628 -0.942651,0.573473 -1.676334,0.956852 -0.733684,0.383379 -1.601281,0.814263 -2.004985,1.36446 -0.403704,0.550196 -0.343385,1.219312 -0.142392,1.611034 0.200992,0.391722 0.542365,0.506217 0.89039,0.543689 0.348025,0.03747 0.702786,-0.0019 0.880052,-0.02164 0.177265,-0.0197 0.177262,-0.01969 0.959345,-0.496544 z"
       id="path46"
       inkscape:path-effect="#path-effect48"
       inkscape:original-d="m 27.014453,23.5325 c 1.564356,-0.953389 3.128445,-1.907041 4.692271,-2.860959 1.39912,-0.103355 2.797916,-0.206969 4.196477,-0.310851 1.114169,0.41474 2.228025,0.829199 3.34164,1.243401 0.285218,0.41474 0.570159,0.829199 0.85484,1.243401 -0.155165,0.699692 -0.310587,1.399091 -0.466276,2.098239 -0.206973,0.41474 -0.414202,0.829199 -0.621702,1.243401 0.621978,0.440646 1.295474,0.984624 1.942815,1.47654 -0.0052,0.264748 -0.01062,0.529226 -0.01632,0.79345 -0.253342,0.25387 -0.506937,0.507464 -0.760803,0.7608 -0.750969,0.544263 -1.502177,1.088241 -2.253662,1.631963 -0.750972,1.2955 -1.50218,2.590683 -2.253665,3.885628 0.129788,0.362932 0.259307,0.725583 0.388564,1.087977 0.129786,0.777404 0.259305,1.554515 0.388562,2.331376 0.388834,0.233408 0.777391,0.46654 1.165688,0.699413 0.129789,1.373214 0.259307,2.746108 0.388564,4.118766 0.699691,0.85512 1.39909,1.709941 2.098239,2.564514 1.450927,1.2955 2.901532,2.590683 4.351903,3.885628 1.191879,0.466548 2.383449,0.932815 3.574778,1.398826 0.277677,-0.158844 0.555075,-0.317945 0.832224,-0.47732 0.966277,0.729278 1.93225,1.458261 2.897977,2.186994 0.412235,-0.281354 0.824179,-0.562955 1.235884,-0.844837 0.391341,1.059023 0.782402,2.11774 1.173206,3.176213 0.93504,0.511194 1.869752,1.022089 2.80427,1.532757 0.364121,-0.183246 0.727959,-0.366747 1.09154,-0.550516 -0.02803,-0.403033 -0.05633,-0.806323 -0.08489,-1.209895 -0.605645,-0.296733 -1.211512,-0.593709 -1.817689,-0.890972 -0.140972,-0.506784 -0.282197,-1.013795 -0.423697,-1.521106 0.04698,-0.570472 0.09369,-1.141183 0.140144,-1.712171 -0.41421,2.65e-4 -0.828669,2.65e-4 -1.243401,0 -0.801951,-0.02228 -1.604122,-0.04483 -2.406604,-0.06765 0.564159,-0.86442 1.128018,-1.729051 1.69165,-2.594005 -0.149984,-0.433641 -0.300226,-0.867529 -0.450734,-1.301686 -0.491924,0.07798 -0.984094,0.155688 -1.476539,0.233137 -0.2683,0.446056 -0.53685,0.891825 -0.805679,1.337354 -0.651252,0.20015 -1.302728,0.400024 -1.95451,0.599646 -0.452605,-0.308654 -0.905454,-0.61756 -1.358577,-0.926736 -0.181068,-0.906402 -0.362392,-1.813028 -0.543986,-2.71994 0.492453,-0.95821 0.984623,-1.916645 1.476536,-2.875365 0.871003,-0.542906 1.741691,-1.086045 2.612163,-1.62948 0.787427,0.362102 1.57456,0.723925 2.361443,1.085491 0.227546,-0.519507 0.454815,-1.039247 0.681832,-1.559284 0.588494,0.223374 1.176692,0.446471 1.764653,0.669314 0.304546,0.193756 0.608812,0.387238 0.912832,0.580467 0.123896,0.466102 0.247521,0.931919 0.370885,1.397481 0.177401,0.418021 0.354625,0.835982 0.5314,1.253243 0.353487,0.07469 0.706893,0.149148 1.060228,0.223385 0.199764,-0.247483 0.398972,-0.494868 0.598177,-0.742843 -0.04439,-0.424208 -0.08901,-0.848345 -0.133914,-1.272926 -0.230936,-0.837032 -0.462124,-1.674279 -0.693589,-2.51184 0.375105,-0.200243 0.749931,-0.400742 1.1245,-0.60151 1.062358,-0.699162 2.124409,-1.398561 3.186213,-2.098239 -0.116904,-0.670334 -0.234065,-1.340895 -0.351498,-2.011759 0.998192,-0.520752 1.996082,-1.041748 2.993725,-1.563018 0.57017,-0.18107 1.14005,-0.362395 1.709677,-0.543989 0.1816,-0.388305 0.362924,-0.776861 0.543989,-1.165688 1.608291,0.03009 3.216215,0.05991 4.823978,0.08947 -0.03143,-0.617398 -0.06311,-1.235023 -0.09507,-1.852948 -0.43505,-0.396188 -0.870338,-0.792617 -1.305917,-1.189335 1.190669,-0.595632 2.381025,-1.191504 3.571137,-1.787651 0.927881,-0.0837 1.855439,-0.167652 2.78279,-0.251878 0.172159,-0.789218 0.344044,-1.578652 0.515674,-2.3684 -0.538198,-0.189124 -1.076628,-0.378501 -1.615355,-0.568154 0.01791,-0.737297 0.03525,-1.462207 0.05293,-2.212641 -0.746403,0.145192 -1.467944,0.285243 -2.202313,0.427468 -0.284686,-0.206973 -0.569627,-0.414203 -0.854839,-0.6217 0.09142,-0.515412 0.182576,-1.031056 0.27347,-1.546996 -1.092377,-0.202548 -2.184977,-0.405352 -3.277862,-0.608425 -0.305241,0.576146 -0.610729,1.151994 -0.9165,1.72761 -0.341956,0.31201 -0.684163,0.623742 -1.026642,0.935216 0.168193,0.312133 0.336116,0.62399 0.503777,0.935588 -0.767413,0.528043 -1.535059,1.055799 -2.302986,1.583302 -0.335592,0.695972 -0.671438,1.391652 -1.007555,2.087079 -0.287615,0.09623 -0.575482,0.19218 -0.863621,0.287875 -0.215643,-0.383574 -0.431543,-0.767398 -0.647713,-1.151493 -0.01926,-0.823884 -0.03879,-1.647981 -0.05858,-2.472394 -1.419357,-0.165908 -2.838891,-0.332071 -4.258777,-0.498508 0.479815,-0.784669 0.959346,-1.56957 1.438621,-2.354751 1.103802,-0.551503 2.255272,-1.103249 3.38251,-1.655271 1.223751,-0.09569 2.447187,-0.191651 3.670382,-0.287873 1.487641,-0.119685 2.974954,-0.23963 4.462034,-0.359841 0.983853,0.624002 1.967399,1.247715 2.950702,1.871175 0.528042,-0.431554 1.055799,-0.863355 1.583301,-1.295429 0.743953,-0.503523 1.391653,-0.959313 2.087081,-1.439366 -0.142778,-0.517652 -0.285813,-1.03554 -0.42912,-1.553723 -1.213225,-0.703223 -2.426642,-1.40667 -3.640393,-2.110421 0.04371,-0.542441 0.08716,-1.085116 0.130344,-1.628086 1.038936,-0.423112 2.077538,-0.846461 3.115953,-1.270105 0.610538,-0.0673 1.220782,-0.13486 1.830771,-0.202686 0.07224,0.384104 0.144203,0.767927 0.215905,1.151493 1.055822,-0.04772 2.111335,-0.09569 3.166605,-0.143937 0.264154,0.04824 0.528031,0.09622 0.791652,0.143937 0.600011,1.1038 1.199734,2.207292 1.799206,3.310541 -0.04771,0.192184 -0.09569,0.384095 -0.143936,0.575746 -0.719434,0.432083 -1.439101,0.863884 -2.159048,1.295429 0.02426,0.552033 0.04824,1.103779 0.07197,1.655271 0.07223,0.552033 0.19218,1.055799 0.287875,1.583302 0.69597,0.360114 1.39165,0.719948 2.087078,1.079525 0.502144,-0.232459 1.004013,-0.465178 1.505638,-0.698171 0.338023,-0.798574 0.675767,-1.597379 1.013253,-2.396465 0.264155,-0.191655 0.528032,-0.383567 0.791652,-0.575747 0.887892,-0.215644 1.775481,-0.431545 2.662825,-0.647715 0.647994,-0.359583 1.295694,-0.719418 1.943145,-1.079524 1.175769,-0.0717 2.351228,-0.143672 3.526446,-0.215905 0.456073,-0.287614 0.911863,-0.575481 1.367398,-0.863619 0.903918,-1.493384 1.807498,-2.986915 2.710898,-4.480857 0.54539,-0.1190006 1.09041,-0.2382448 1.63529,-0.3577814 0.0712,-0.3847228 0.1421,-0.7695921 0.21276,-1.1548497 -0.47633,-0.2470769 -0.95283,-0.4943648 -1.42965,-0.7419517 -1.1628,0.038384 -2.32581,0.076503 -3.489112,0.1143572 -0.599482,0.144204 -1.199205,0.2881376 -1.799206,0.4318097 -0.719431,-0.071705 -1.4391,-0.1436721 -2.159047,-0.215905 -1.39115,0.2641537 -2.78251,0.5280321 -4.174162,0.7916513 -2.110846,-0.2876145 -4.221874,-0.5754817 -6.33321,-0.8636195 -2.014887,0.1921838 -4.029958,0.3840956 -6.045335,0.5757463 -1.879949,0.049738 -3.760046,0.099209 -5.640528,0.1484183 -0.773414,0.8009587 -1.547044,1.6016005 -2.320986,2.4020295 -0.680441,0.445553 -1.361121,0.890824 -2.042077,1.335839 -1.822969,0.192184 -3.64613,0.384095 -5.469591,0.575746 -1.67903,-0.263624 -3.358256,-0.527503 -5.03778,-0.791651 -0.719432,0.07223 -1.439101,0.144201 -2.159048,0.215905 -0.599482,0.336123 -1.199208,0.671969 -1.799206,1.007556 -0.167667,0.264154 -0.33559,0.528032 -0.50378,0.791651 -1.199229,0.216174 -2.398678,0.432074 -3.598413,0.647715 -1.223222,0.120214 -2.446657,0.240158 -3.670385,0.359841 -1.223219,-0.215645 -2.446654,-0.431545 -3.670381,-0.647714 -1.43913,-0.09569 -2.878466,-0.191651 -4.318098,-0.287874 -1.511099,0.264154 -3.022402,0.528032 -4.534001,0.791652 -0.527513,0.216173 -1.055272,0.432074 -1.583303,0.647714 2.64e-4,0.192184 2.64e-4,0.384095 0,0.575746 -0.911352,0.336124 -1.822932,0.671969 -2.734795,1.007556 -0.04772,0.168194 -0.09569,0.336117 -0.143936,0.503779 -0.05743,0.220588 -0.115124,0.440903 -0.173084,0.660963 -0.08598,0.139787 -0.172219,0.279305 -0.258726,0.418561 -0.599483,0.336123 -1.199206,0.671968 -1.799207,1.007556 -0.867384,0.431174 -1.734981,0.862058 -2.602894,1.292703 0.06059,0.669408 0.120905,1.338524 0.180961,2.007389 0.341637,0.114759 0.68301,0.229255 1.024119,0.343485 0.355027,-0.03915 0.709788,-0.07857 1.064286,-0.118258 z"
       sodipodi:nodetypes="cccccccccccccccccccccccccccccccccccccccccccccccccccccccccccccccccccccccccccccccccccccccccccccccccccccccccccccccccccccccccccccccccccccccccccc" />
    <path
       style="fill:none;stroke:#000000;stroke-width:0.264583px;stroke-linecap:butt;stroke-linejoin:miter;stroke-opacity:1"
       d="m 61.211043,53.933107 c -0.382131,0.364761 -1.146402,1.094292 -1.615415,1.615436 -0.469013,0.521144 -0.642707,0.833794 -0.694776,1.337623 -0.05207,0.503828 0.01741,1.198605 -0.476828,2.393782 -0.494236,1.195176 -1.552052,2.890855 -1.776251,4.242599 -0.224198,1.351745 0.385015,2.359149 1.180836,3.780406 0.795821,1.421257 1.778174,3.256193 2.888437,4.475264 1.110263,1.219072 2.348185,1.82231 3.019152,2.315085 0.670966,0.492774 0.775183,0.874902 0.879364,2.820331 0.104181,1.945429 0.208397,5.45405 0.660057,8.719615 0.451659,3.265565 1.250651,6.287843 2.015003,8.250623 0.764352,1.96278 1.493869,2.865991 2.374998,3.617621 0.881129,0.751629 1.913716,1.351731 2.792979,1.600032 0.879264,0.248301 1.605198,0.14498 1.93389,-0.116296 0.328692,-0.261276 0.260304,-0.680827 -0.258769,-1.169439 -0.519072,-0.488611 -1.489035,-1.046116 -1.952169,-1.648487 -0.463134,-0.60237 -0.419055,-1.249601 -0.502753,-2.356413 -0.0837,-1.106811 -0.295222,-2.673124 0.134348,-3.821314 0.429569,-1.14819 1.500164,-1.877793 2.671796,-3.276929 1.171632,-1.399136 2.444262,-3.467748 3.05539,-5.109825 0.611129,-1.642077 0.560619,-2.857607 1.162344,-3.533494 0.601726,-0.675886 1.855419,-0.811747 2.690642,-1.001281 0.835223,-0.189533 1.252089,-0.432705 1.547325,-1.440027 0.295235,-1.007322 0.468929,-2.779001 0.607875,-3.85596 0.138946,-1.076958 0.243162,-1.459085 0.694793,-2.188693 0.45163,-0.729609 1.250624,-1.806513 1.584205,-2.594203 0.333581,-0.78769 0.181441,-1.362685 -0.374284,-1.814404 -0.555725,-0.451719 -1.525318,-0.818074 -2.56597,-1.174967 -1.040651,-0.356893 -2.152292,-0.70428 -3.316078,-1.155877 -1.163786,-0.451596 -2.379644,-1.007418 -3.004742,-1.671284 -0.625099,-0.663865 -0.659104,-1.43585 -0.846929,-2.059612 -0.187825,-0.623763 -0.529657,-1.099268 -1.155317,-1.321358 -0.62566,-0.22209 -1.535175,-0.190444 -2.597867,-0.643495 -1.062692,-0.453052 -2.278552,-1.391001 -3.580008,-2.055663 -1.301456,-0.664661 -2.624091,-1.037712 -3.492586,-1.350316 -0.868495,-0.312605 -1.250621,-0.555777 -1.719691,-0.573269 -0.469071,-0.01749 -1.024891,0.190939 -1.302881,0.295185 -0.277989,0.104246 -0.277989,0.104242 -0.66012,0.469004 z"
       id="path50"
       inkscape:path-effect="#path-effect52"
       inkscape:original-d="m 61.593174,53.568345 c -0.764003,0.729795 -1.528273,1.459326 -2.292808,2.188589 -0.173437,0.312928 -0.347131,0.625578 -0.521092,0.937969 0.06974,0.695068 0.139221,1.389845 0.208436,2.084371 -1.057613,1.696043 -2.115429,3.391722 -3.173574,5.08724 0.609516,1.007731 1.218729,2.015136 1.827715,3.022338 0.982675,1.835307 1.965028,3.670243 2.947172,5.50502 1.238233,0.603526 2.476155,1.206765 3.713836,1.809751 0.104484,0.382404 0.2087,0.764532 0.312655,1.146402 0.104484,3.509029 0.208701,7.01765 0.312656,10.526077 0.799287,3.022664 1.598281,6.044941 2.397027,9.067015 0.729808,0.903509 1.459325,1.80672 2.188588,2.709682 1.032916,0.600405 2.065503,1.200507 3.097891,1.800383 0.726229,-0.10306 1.452163,-0.206382 2.177846,-0.309969 -0.06813,-0.419295 -0.136513,-0.838847 -0.205169,-1.258679 -0.969754,-0.557272 -1.939717,-1.114776 -2.910001,-1.672578 0.04435,-0.647005 0.08843,-1.294236 0.132243,-1.94177 -0.211271,-1.566138 -0.422794,-3.132451 -0.634594,-4.699118 1.070921,-0.72938 2.141516,-1.458982 3.211909,-2.188891 1.272974,-2.068476 2.545604,-4.137088 3.818052,-6.206098 -0.05025,-1.215345 -0.100758,-2.430876 -0.151535,-3.646746 1.254006,-0.135602 2.507699,-0.271464 3.761152,-0.407592 0.417144,-0.242916 0.834011,-0.486087 1.250622,-0.72953 0.173966,-1.771486 0.347659,-3.543165 0.521091,-5.315146 0.104487,-0.381878 0.208703,-0.764005 0.312656,-1.146405 0.79929,-1.076682 1.598284,-2.153587 2.397027,-3.230774 -0.131696,-0.498461 -0.283837,-1.073456 -0.426156,-1.610597 -0.969367,-0.366105 -1.93896,-0.73246 -2.908838,-1.099088 -1.111422,-0.347136 -2.223063,-0.694524 -3.334993,-1.042183 -1.215644,-0.55558 -2.431503,-1.111401 -3.647649,-1.6675 -0.03374,-0.771763 -0.06775,-1.543748 -0.102021,-2.316038 -0.341581,-0.475259 -0.683413,-0.950764 -1.025519,-1.426547 -0.909254,0.03191 -1.818768,0.06356 -2.728548,0.09494 -1.215644,-0.93772 -2.431502,-1.875671 -3.647652,-2.813902 -1.389343,-0.381878 -2.709418,-0.764005 -4.064523,-1.146402 -0.381879,-0.24292 -0.764006,-0.48609 -1.146403,-0.729531 -0.55558,0.208706 -1.111401,0.417137 -1.667499,0.625311 z"
       sodipodi:nodetypes="cccccccccccccccccccccccccccccccccccccc" />
    <path
       sodipodi:nodetypes="scccccccccccccccccccccccccccccccccccccccccccccccccccccccccsss"
       style="fill:none;stroke:#000000;stroke-width:0.264583px;stroke-linecap:butt;stroke-linejoin:miter;stroke-opacity:1"
       d="m 140.05732,54.557428 c 0.0313,0.265718 0.006,0.555793 -0.45569,1.409541 -0.46154,0.853749 -1.35912,2.271264 -2.15673,3.19467 -0.79761,0.923405 -1.49532,1.352765 -2.3407,2.144464 -0.84538,0.791699 -1.83828,1.945608 -2.29447,3.099684 -0.45618,1.154076 -0.37568,2.307985 -0.14745,3.086219 0.22822,0.778235 0.60391,1.18076 0.69984,1.591719 0.0959,0.410959 -0.0962,0.850173 -0.10956,1.266226 -0.0133,0.416053 0.14768,0.818582 0.0403,1.247811 -0.10742,0.429229 -0.48311,0.885424 -0.97954,1.328186 -0.49643,0.442762 -1.11363,0.872121 -1.61013,1.301525 -0.4965,0.429404 -0.8722,0.85877 -1.01976,1.301707 -0.14756,0.442936 -0.067,0.899129 -0.0191,1.306688 0.0479,0.407559 0.0633,0.766472 -0.17817,1.128609 -0.24151,0.362138 -0.73993,0.727762 -1.05624,0.964254 -0.31631,0.236491 -0.45049,0.343833 -0.47576,0.58861 -0.0253,0.244778 0.0583,0.626628 -0.0321,1.012083 -0.0904,0.385455 -0.35477,0.774696 -0.61913,1.163994 -1.34886,1.187842 -2.6977,2.375667 -3.54645,2.983006 -0.84875,0.607338 -1.1976,0.634173 -1.85505,0.526877 -0.65745,-0.107297 -1.62352,-0.348815 -2.17376,-0.710982 -0.55025,-0.362168 -0.68442,-0.845201 -1.01982,-1.516103 -0.3354,-0.670902 -0.8721,-1.529626 -1.19118,-2.119917 -0.31908,-0.590291 -0.42046,-0.912205 -0.50101,-1.623383 -0.0806,-0.711177 -0.14019,-1.811564 -0.49197,-2.871642 -0.35177,-1.060078 -0.99581,-2.079812 -1.3208,-2.842198 -0.32499,-0.762385 -0.33072,-1.267362 -0.049,-1.951788 0.28176,-0.684427 0.85104,-1.548044 1.06864,-2.355452 0.2176,-0.807409 0.0834,-1.558789 -0.13124,-2.350442 -0.21466,-0.791653 -0.50984,-1.623544 -1.01965,-2.361566 -0.5098,-0.738022 -1.23435,-1.382066 -1.44919,-2.281106 -0.21485,-0.899039 0.0803,-2.052948 0.0403,-2.790903 -0.0401,-0.737954 -0.41578,-1.059974 -1.19402,-1.341842 -0.77823,-0.281867 -1.95898,-0.523384 -3.59603,-0.456342 -1.63704,0.06704 -3.73018,0.442735 -4.99146,0.657425 -1.26127,0.21469 -1.69063,0.268359 -2.40178,-0.321878 -0.71115,-0.590236 -1.704053,-1.824654 -2.576246,-3.085933 -0.872192,-1.261279 -1.623575,-2.549365 -1.73101,-3.488769 -0.107435,-0.939404 0.429268,-1.529777 0.556696,-2.17091 0.127427,-0.641132 -0.180957,-1.398073 -0.315079,-1.895906 -0.134122,-0.497833 -0.107551,-0.763527 0.362072,-1.622365 0.469624,-0.858839 1.38202,-2.307937 2.173763,-3.180162 0.791744,-0.872226 1.462614,-1.16741 1.891904,-1.636928 0.42928,-0.469517 0.61713,-1.113562 1.11363,-1.784555 0.49651,-0.670993 1.30156,-1.36871 2.60321,-1.86518 1.30164,-0.496471 3.0996,-0.791659 4.61585,-0.939238 1.51625,-0.147578 2.75067,-0.147578 3.502,0.228287 0.75133,0.375866 1.01968,1.12725 1.89195,1.891999 0.87227,0.764749 2.34821,1.542972 3.20685,1.878306 0.85865,0.335334 1.10017,0.227993 1.30135,-0.05368 0.20118,-0.281676 0.36219,-0.737873 0.56357,-1.006334 0.20137,-0.268461 0.44289,-0.348969 1.54325,-0.161051 1.10035,0.187917 3.05932,0.644115 4.17296,1.046765 1.11364,0.402649 1.38199,0.751506 2.0126,2.066491 0.6306,1.314984 1.62351,3.595969 2.92509,5.82334 1.30159,2.227371 2.9117,4.401019 3.85091,5.434017 0.9392,1.032998 1.20756,0.925654 1.73087,0.724384 0.5233,-0.201269 1.30152,-0.496456 1.83982,-0.571882 0.53829,-0.07543 0.83646,0.0687 1.02951,0.261557 0.19304,0.192857 0.28116,0.434278 0.31244,0.699996 z"
       id="path54"
       inkscape:path-effect="#path-effect56"
       inkscape:original-d="m 140.11405,54.532817 c -0.0252,0.290351 -0.0506,0.580429 -0.0763,0.870256 -0.89735,1.417841 -1.79493,2.835355 -2.69279,4.252636 -0.69748,0.429644 -1.39519,0.859004 -2.09318,1.288111 -0.99268,1.154224 -1.98558,2.308132 -2.97876,3.461803 0.0808,1.154221 0.16128,2.308132 0.24152,3.461803 0.37597,0.402807 0.75166,0.805333 1.1271,1.207603 -0.16076,0.429647 -0.37544,0.859007 -0.56355,1.288114 0.16128,0.402807 0.32229,0.805336 0.48304,1.207606 -0.37544,0.45648 -0.75113,0.912677 -1.1271,1.368618 -0.61697,0.429646 -1.23417,0.859007 -1.85166,1.288113 -0.37544,0.429644 -0.75114,0.859007 -1.1271,1.288113 0.0808,0.456481 0.16128,0.912678 0.24152,1.368619 0.0156,0.359207 0.031,0.71812 0.0462,1.076795 -0.49818,0.365905 -0.9966,0.73153 -1.49529,1.096894 -0.13392,0.107612 -0.2681,0.21495 -0.40254,0.32203 0.0839,0.382136 0.16745,0.763994 0.25077,1.145592 -0.2641,0.389562 -0.79309,1.167895 -0.79309,1.167895 0,0 -2.69745,2.375946 -4.04657,3.563525 -0.34861,0.0271 -0.69746,0.05393 -1.04659,0.08051 -0.96584,-0.24126 -1.93191,-0.482777 -2.89825,-0.724564 -0.13392,-0.482787 -0.2681,-0.965819 -0.40254,-1.449125 -0.53646,-0.858494 -1.07316,-1.71722 -1.61014,-2.576224 -0.10109,-0.321583 -0.20246,-0.643498 -0.30409,-0.965652 -0.0594,-1.100162 -0.11903,-2.20055 -0.17895,-3.301223 -0.64381,-1.019511 -1.28785,-2.039247 -1.93217,-3.059266 -0.005,-0.504716 -0.0112,-1.009688 -0.0172,-1.514943 0.56957,-0.863391 1.13884,-1.727012 1.70787,-2.590916 -0.13392,-0.75115 -0.26809,-1.502532 -0.40254,-2.254197 -0.29493,-0.831657 -0.59012,-1.663547 -0.88558,-2.495717 -0.72431,-0.643805 -1.44886,-1.287849 -2.17369,-1.93217 0.29547,-1.153692 0.59065,-2.307603 0.88558,-3.4618 -0.37544,-0.321771 -0.75113,-0.643793 -1.1271,-0.966084 -1.18052,-0.241263 -2.36127,-0.48278 -3.54231,-0.724564 -2.09296,0.37597 -4.1861,0.751662 -6.27954,1.127098 -0.42912,0.05394 -0.85848,0.107606 -1.28812,0.161012 -0.99267,-1.234199 -1.985572,-2.468615 -2.978757,-3.703322 -0.75115,-1.287873 -1.502532,-2.57596 -2.254195,-3.864338 0.536988,-0.590131 1.07369,-1.180504 1.610141,-1.771155 -0.2681,-0.697476 -0.590122,-1.448861 -0.885579,-2.173689 0.05394,-0.268097 0.05394,-0.536448 0.08051,-0.805069 0.912696,-1.44889 1.825091,-2.897989 2.73724,-4.34738 0.67117,-0.294933 1.34204,-0.590121 2.01267,-0.885578 0.18812,-0.643803 0.37597,-1.287847 0.56355,-1.932168 0.80535,-0.697476 1.61041,-1.39519 2.41521,-2.093182 1.79829,-0.294934 3.59625,-0.590121 5.39397,-0.885579 1.23473,2.65e-4 2.46915,2.65e-4 3.70333,0 0.26862,0.751679 0.53697,1.503064 0.80507,2.254197 1.47625,0.778515 2.95219,1.556734 4.42788,2.334705 0.24179,-0.10708 0.48331,-0.214421 0.72457,-0.322027 0.16128,-0.455952 0.32229,-0.912149 0.48304,-1.368621 0.24179,-0.08024 0.48331,-0.160751 0.72456,-0.241523 1.95931,0.456481 3.91828,0.912678 5.87702,1.368621 0.26862,0.349136 0.53697,0.697992 0.80506,1.046591 0.99321,2.281344 1.98611,4.56233 2.97877,6.843099 1.61043,2.173997 3.22054,4.347644 4.83042,6.521069 0.26862,-0.10708 0.53698,-0.214421 0.80507,-0.32203 0.77851,-0.294933 1.55673,-0.590119 2.3347,-0.885576 0.29845,0.144396 0.59662,0.288519 0.89452,0.432381 0.0884,0.241687 0.17651,0.483112 0.26437,0.724273 z" />
    <path
       style="fill:none;stroke:#000000;stroke-width:0.264583px;stroke-linecap:butt;stroke-linejoin:miter;stroke-opacity:1"
       d="m 138.09338,15.105972 c -0.36216,0.009 -1.08673,0.0271 -2.38667,0.234554 -1.29994,0.207453 -3.1751,0.604303 -4.52282,1.022992 -1.34772,0.41869 -2.16776,0.859185 -2.81989,1.306792 -0.65212,0.447607 -1.1362,0.902247 -1.57847,0.910585 -0.44227,0.0083 -0.84292,-0.429896 -1.18805,-0.858396 -0.34514,-0.428499 -0.63464,-0.847191 -0.36229,-0.920907 0.27235,-0.07372 1.10645,0.197767 1.77115,0.164973 0.6647,-0.03279 1.16022,-0.369701 1.21068,-0.789177 0.0505,-0.419476 -0.34434,-0.921802 -1.10566,-1.198337 -0.76131,-0.276536 -1.88911,-0.326972 -3.30676,-0.437228 -1.41765,-0.110256 -3.12501,-0.280336 -4.67887,0.203752 -1.55386,0.484088 -2.95382,1.622357 -3.6931,2.361702 -0.73928,0.739346 -0.81778,1.079529 -1.27867,1.414106 -0.46089,0.334577 -1.3043,0.663778 -1.81468,1.082577 -0.51038,0.418798 -0.68748,0.926939 -0.50108,1.390399 0.18639,0.463461 0.7359,0.882136 1.18065,0.986669 0.44475,0.104533 0.78492,-0.104803 1.07282,-0.01303 0.28791,0.09177 0.52342,0.484279 0.5233,0.863596 -1.2e-4,0.379318 -0.23562,0.745657 -0.92903,1.308214 -0.69341,0.562558 -1.84472,1.321366 -2.61821,1.650173 -0.77348,0.328807 -1.16924,0.227425 -1.54314,-0.295891 -0.3739,-0.523316 -0.72568,-1.468709 -1.23729,-2.09727 -0.5116,-0.628561 -1.18312,-0.939965 -1.73829,-0.932033 -0.55517,0.0079 -0.99367,0.335389 -1.50091,0.70052 -0.50723,0.365131 -1.08318,0.767918 -1.46828,1.217372 -0.3851,0.449455 -0.57924,0.945387 -0.48749,1.390304 0.0917,0.444918 0.46906,0.838683 0.88281,0.92313 0.41375,0.08445 0.86407,-0.140087 1.2436,-0.126859 0.37953,0.01323 0.68806,0.263932 0.81599,0.572462 0.12794,0.30853 0.0756,0.674869 0.39299,1.432158 0.31739,0.757289 1.00426,1.90538 0.95359,2.521789 -0.0507,0.61641 -0.83892,0.701441 -1.68077,0.70449 -0.84184,0.003 -1.73723,-0.07593 -2.18715,0.306924 -0.44992,0.382855 -0.45402,1.227252 -0.48713,2.087771 -0.0331,0.860518 -0.0952,1.737053 0.54114,2.096712 0.63635,0.359659 1.97081,0.20266 2.83422,-0.101517 0.86342,-0.304177 1.25593,-0.755542 1.56338,-1.233053 0.30746,-0.477512 0.52987,-0.981233 0.96658,-1.476859 0.43672,-0.495626 1.08764,-0.982992 1.88747,-1.367354 0.79984,-0.384363 1.7484,-0.665672 2.28818,-0.780074 0.53978,-0.114401 0.67062,-0.06206 0.88123,0.190501 0.21061,0.252565 0.50109,0.705151 0.84078,1.088631 0.33969,0.383479 0.71451,0.686599 1.00631,1.010658 0.2918,0.32406 0.46021,0.62402 0.69433,0.828958 0.23412,0.204937 0.52751,0.303859 0.78072,0.196517 0.25321,-0.107342 0.46656,-0.420894 0.822,-0.551519 0.35543,-0.130624 0.85261,-0.07829 1.25084,0.114206 0.39822,0.192496 0.69751,0.52489 0.9876,0.679022 0.29008,0.154132 0.57094,0.130297 0.77441,-0.03583 0.20347,-0.166125 0.32983,-0.474683 0.61181,-0.720649 0.28198,-0.245966 0.71935,-0.429131 1.17192,-0.578192 0.45256,-0.149062 0.92021,-0.264008 1.15763,-0.601791 0.23741,-0.337784 0.24474,-0.898638 0.36788,-1.403863 0.12313,-0.505224 0.36211,-0.954586 0.69081,-1.258624 0.32871,-0.304038 0.74692,-0.462587 1.0872,-0.501766 0.34027,-0.03918 0.60239,0.04087 0.86122,0.256953 0.25882,0.216082 0.51441,0.56797 0.92561,0.553588 0.4112,-0.01438 0.97811,-0.39468 1.4022,-0.260215 0.4241,0.134465 0.70524,0.783327 1.11834,1.163761 0.4131,0.380433 0.95798,0.492666 1.99396,0.911857 1.03598,0.419191 2.56293,1.145195 3.46889,1.271215 0.90597,0.12602 1.19116,-0.347894 0.91738,-0.970615 -0.27378,-0.622721 -1.10681,-1.394347 -1.21395,-1.938504 -0.10713,-0.544156 0.51181,-0.86046 0.84898,-1.131261 0.33718,-0.2708 0.39271,-0.496319 0.21788,-0.980088 -0.17483,-0.48377 -0.58022,-1.225872 -0.6041,-1.719175 -0.0239,-0.493302 0.33388,-0.737413 0.95806,-0.781754 0.62418,-0.04434 1.51444,0.111001 2.07998,0.03143 0.56553,-0.07957 0.80659,-0.39402 0.69681,-1.0309 -0.10978,-0.63688 -0.57058,-1.59641 -1.01037,-2.913574 -0.43978,-1.317163 -0.85846,-2.991867 -0.70911,-4.007139 0.14934,-1.015273 0.86664,-1.370691 1.20596,-1.652877 0.33931,-0.282186 0.30064,-0.491453 0.24057,-0.666439 -0.0601,-0.174986 -0.14167,-0.315716 -0.34107,-0.448093 -0.1994,-0.132376 -0.51673,-0.256216 -0.67556,-0.3182 -0.15883,-0.06198 -0.15884,-0.06199 -0.521,-0.05296 z"
       id="path58"
       inkscape:path-effect="#path-effect60"
       inkscape:original-d="m 138.45554,15.09694 c -0.72431,0.01833 -1.44888,0.0364 -2.17372,0.05421 -1.87499,0.397136 -3.75014,0.793986 -5.62567,1.190595 -0.81981,0.440778 -1.63985,0.881273 -2.46017,1.321512 -0.48385,0.45493 -0.96793,0.909571 -1.4523,1.363971 -0.40041,-0.438008 -0.80105,-0.876244 -1.20201,-1.314794 -0.28927,-0.418473 -0.57878,-0.837162 -0.86857,-1.256153 0.83439,0.271757 1.66849,0.54324 2.50233,0.81446 0.49582,-0.336667 0.99134,-0.673574 1.48663,-1.010768 -0.39455,-0.502091 -0.78935,-1.004414 -1.18443,-1.507031 -1.12759,-0.05017 -2.25539,-0.100611 -3.38351,-0.151315 -1.70719,-0.169824 -3.41455,-0.339904 -5.12227,-0.510258 -1.39975,1.138581 -2.7997,2.276853 -4.19995,3.414882 -0.0782,0.340452 -0.15674,0.680627 -0.23551,1.020543 -0.8432,0.329484 -1.68661,0.658686 -2.53034,0.987643 -0.17684,0.508431 -0.35393,1.016572 -0.53129,1.524465 0.5498,0.418957 1.09931,0.837633 1.64857,1.256053 0.34046,-0.209082 0.68063,-0.41842 1.02055,-0.628027 0.23577,0.39279 0.47128,0.785299 0.70653,1.177551 -0.23526,0.366621 -0.47076,0.732962 -0.70653,1.099047 -1.15115,0.75914 -2.30246,1.51795 -3.45415,2.276568 -0.39553,-0.101126 -0.79129,-0.202507 -1.18734,-0.304161 -0.35155,-0.945218 -0.70333,-1.890612 -1.05542,-2.836386 -0.67133,-0.311174 -1.34284,-0.62258 -2.01466,-0.934268 -0.43825,0.32773 -0.87675,0.655187 -1.31553,0.982394 -0.5757,0.403061 -1.15165,0.805847 -1.72786,1.208369 -0.19388,0.496211 -0.38802,0.992142 -0.58242,1.487817 0.37758,0.39403 0.75489,0.787799 1.13194,1.181297 0.45061,-0.224284 0.90093,-0.448818 1.35101,-0.673629 0.3088,0.25098 0.61732,0.501685 0.92559,0.752133 -0.0521,0.36662 -0.10441,0.732962 -0.15701,1.099048 0.68716,1.148404 1.37403,2.296493 2.06065,3.444351 -0.78801,0.0853 -1.57626,0.17033 -2.36481,0.2551 -0.89519,-0.07872 -1.79058,-0.157703 -2.6863,-0.236953 -0.004,0.844721 -0.008,1.689119 -0.0123,2.533314 -0.0618,0.876864 -0.12394,1.753396 -0.18631,2.629732 1.33482,-0.156746 2.66928,-0.313745 4.00356,-0.471019 0.3928,-0.451126 0.78531,-0.902492 1.17758,-1.354147 0.22268,-0.503471 0.44509,-1.007191 0.66723,-1.511182 0.65119,-0.487109 1.30211,-0.974473 1.95279,-1.462124 0.94886,-0.281057 1.89742,-0.562366 2.84574,-0.843946 0.1311,0.0526 0.26194,0.104937 0.39251,0.157007 0.29077,0.452878 0.58125,0.905465 0.87148,1.357808 0.38906,0.314689 0.76387,0.617812 1.16636,0.943261 0.18123,0.322588 0.34964,0.622548 0.52407,0.93344 0.29367,0.09919 0.58706,0.198113 0.88021,0.296777 0.21362,-0.313301 0.42697,-0.626852 0.64006,-0.940674 0.49746,0.0526 0.99464,0.104934 1.49156,0.157006 0.29957,0.332672 0.59886,0.665067 0.89789,0.997203 0.28114,-0.02357 0.562,-0.04741 0.84261,-0.07151 0.12663,-0.308303 0.25299,-0.616862 0.37909,-0.92569 0.43767,-0.182913 0.87504,-0.366081 1.31218,-0.549523 0.46794,-0.114688 0.93559,-0.229633 1.40301,-0.344853 0.008,-0.56065 0.0149,-1.12151 0.022,-1.68268 0.23925,-0.449114 0.47823,-0.898474 0.71694,-1.348107 0.4185,-0.158296 0.83671,-0.316845 1.25469,-0.47567 0.2624,0.08032 0.52452,0.160369 0.7864,0.24016 0.25587,0.352168 0.51146,0.704057 0.7668,1.055701 0.56722,-0.380066 1.13412,-0.760367 1.70081,-1.140964 0.28142,0.649169 0.56256,1.298032 0.84345,1.946654 0.54515,0.112499 1.09003,0.224733 1.63465,0.336703 1.52733,0.726323 3.05428,1.452329 4.58109,2.178126 0.28548,-0.473683 0.57067,-0.947597 0.85561,-1.421806 -0.83282,-0.77141 -1.66585,-1.543036 -2.4992,-2.314982 0.61925,-0.31606 1.23819,-0.632367 1.85689,-0.948947 0.0558,-0.22526 0.11133,-0.450779 0.1666,-0.676573 -0.40515,-0.741871 -0.81054,-1.483975 -1.21621,-2.226364 0.35804,-0.243858 0.71579,-0.487972 1.0733,-0.732364 0.8906,0.155618 1.78086,0.310961 2.67093,0.46605 0.24134,-0.314211 0.48239,-0.628666 0.7232,-0.943405 -0.46055,-0.959299 -0.92135,-1.918828 -1.38242,-2.878641 -0.41843,-1.674507 -0.8371,-3.349212 -1.25605,-5.024215 0.71761,-0.355179 1.43491,-0.710597 2.15201,-1.06631 -0.0384,-0.209017 -0.0771,-0.41828 -0.11604,-0.627818 -0.0813,-0.140456 -0.16292,-0.281172 -0.24477,-0.422159 -0.31708,-0.123581 -0.63441,-0.247421 -0.95202,-0.371529 z"
       sodipodi:nodetypes="sccccccccccccccccccccccccccccccccccccccccccccccccccccccccccccccccccccccccssss" />
    <path
       style="fill:none;stroke:#000000;stroke-width:0.264583px;stroke-linecap:butt;stroke-linejoin:miter;stroke-opacity:1"
       d="m 132.03718,33.613769 c -0.27909,0.106994 -0.55802,0.21393 -1.26133,0.0171 -0.70331,-0.196831 -1.83094,-0.697657 -2.92034,-0.731438 -1.08941,-0.03378 -2.14029,0.399696 -2.81521,0.87453 -0.67492,0.474834 -0.97368,0.990867 -0.72778,1.535951 0.2459,0.545085 1.03605,1.11905 2.11245,1.142982 1.0764,0.02393 2.43905,-0.501904 2.87042,-0.02595 0.43138,0.475952 -0.0684,1.953429 -0.0583,3.423267 0.01,1.469837 0.52969,2.931741 1.04764,3.852782 0.51795,0.92104 1.03398,1.301273 1.33261,1.817353 0.29863,0.516079 0.38011,1.16791 0.82838,1.833308 0.44827,0.665398 1.26306,1.344387 1.72989,2.368905 0.46683,1.024518 0.58596,2.394429 1.23787,2.869567 0.65192,0.475139 1.83645,0.05578 3.24349,-0.710687 1.40704,-0.766466 3.0366,-1.879999 4.11662,-2.750701 1.08002,-0.870702 1.6105,-1.498572 1.62707,-2.057355 0.0166,-0.558782 -0.48108,-1.048661 -0.99034,-1.431674 -0.50926,-0.383013 -1.03013,-0.65902 -1.80172,-0.754162 -0.77159,-0.09514 -1.79373,-0.0092 -2.59672,-0.618197 -0.80298,-0.608974 -1.38659,-1.913086 -1.47348,-2.712398 -0.0869,-0.799312 0.32304,-1.093354 0.7318,-0.914286 0.40876,0.179069 0.81616,0.830898 1.76723,1.55548 0.95108,0.724583 2.44564,1.522013 4.04516,1.742619 1.59952,0.220607 3.30394,-0.135421 4.47461,0.292807 1.17068,0.428229 1.80751,1.640308 2.44115,2.384979 0.63363,0.744672 1.26386,1.022037 1.94984,2.195912 0.68597,1.173875 1.42781,3.243936 2.04658,4.600672 0.61876,1.356736 1.11428,2.000021 1.57919,2.063502 0.46492,0.06348 0.89947,-0.452543 1.10318,-1.267231 0.20371,-0.814688 0.17654,-1.928224 0.23083,-2.620888 0.0543,-0.692664 0.19009,-0.964256 0.86436,-1.718952 0.67427,-0.754696 1.8869,-1.992312 2.94626,-2.739257 1.05935,-0.746944 1.96512,-1.003065 2.74873,-0.65421 0.7836,0.348855 1.44494,1.302285 1.8147,2.048326 0.36976,0.746042 0.44806,1.284596 0.70946,1.605033 0.26139,0.320437 0.70557,0.422923 1.04109,0.603715 0.33552,0.180791 0.56244,0.439679 0.83367,0.685046 0.27123,0.245367 0.58671,0.477255 0.99487,0.596088 0.40816,0.118834 0.909,0.12482 1.48534,0.521783 0.57635,0.396962 1.22817,1.184587 1.70349,1.727777 0.47531,0.54319 0.77407,0.841947 1.34435,0.760304 0.57028,-0.08164 1.41222,-0.543351 1.73812,-1.262924 0.32591,-0.719572 0.13579,-1.697311 -0.44822,-2.566475 -0.584,-0.869163 -1.56208,-1.629617 -1.88314,-2.428375 -0.32106,-0.798758 0.0153,-1.635644 1.00572,-1.999044 0.99045,-0.3634 2.63453,-0.253156 3.89231,-0.635934 1.25779,-0.382779 2.12941,-1.258521 2.63481,-2.308753 0.50541,-1.050233 0.63781,-2.215384 0.11923,-3.281104 -0.51859,-1.06572 -1.69181,-2.002073 -1.97714,-2.749111 -0.28532,-0.747037 0.31758,-1.304437 0.71864,-1.893508 0.40107,-0.589072 0.60035,-1.209946 0.93512,-1.166617 0.33477,0.04333 0.80472,0.7507 1.25274,1.455305 0.44802,0.704604 0.84744,1.362509 1.42964,1.489509 0.5822,0.127 1.21048,-0.306476 1.14643,-1.062334 -0.064,-0.755858 -0.88612,-1.83675 -1.21218,-2.651625 -0.32607,-0.814874 -0.16768,-1.379135 0.26474,-1.688535 0.43243,-0.309399 1.13858,-0.363719 1.50763,-1.204925 0.36906,-0.841206 0.40125,-2.469476 0.0347,-3.678115 -0.36653,-1.208638 -1.13203,-1.99752 -1.83803,-2.380418 -0.70599,-0.382898 -1.35242,-0.359518 -1.94155,-0.475813 -0.58913,-0.116295 -1.12098,-0.372419 -1.22161,-0.986222 -0.10064,-0.613803 0.23031,-1.585221 0.90809,-2.039285 0.67778,-0.454064 1.70197,-0.390577 2.54788,-0.323901 0.84591,0.06668 1.5134,0.136518 1.95694,-0.151931 0.44353,-0.288449 0.66338,-0.93527 0.9479,-1.186722 0.28453,-0.251452 0.63331,-0.107467 0.99568,-0.02908 0.36236,0.07839 0.7383,0.09129 1.04491,-0.03628 0.30661,-0.127574 0.54414,-0.395617 0.86235,-0.373049 0.31822,0.02257 0.71678,0.335524 0.67191,0.925596 -0.0449,0.590072 -0.53282,1.457319 -0.14149,2.541313 0.39134,1.083994 1.66159,2.384408 2.55295,2.897971 0.89137,0.513563 1.40392,0.240534 1.48412,-0.329653 0.0802,-0.570187 -0.27201,-1.437846 -0.61101,-2.034675 -0.339,-0.596829 -0.66491,-0.92274 -0.9501,-1.221497 -0.28519,-0.298757 -0.52963,-0.570353 -0.36676,-0.896436 0.16288,-0.326082 0.73322,-0.70631 1.25343,-0.808269 0.52021,-0.10196 0.98998,0.0742 1.30214,-0.0073 0.31216,-0.08148 0.46704,-0.420596 0.73318,-0.650071 0.26613,-0.229475 0.64327,-0.349123 0.6868,-0.749568 0.0435,-0.400444 -0.24654,-1.082006 -0.94387,-1.708268 -0.69734,-0.626262 -1.80207,-1.197019 -3.04067,-1.665566 -1.2386,-0.468548 -2.61097,-0.834766 -3.52811,-0.950044 -0.91713,-0.115278 -1.37884,0.02052 -1.62339,0.183617 -0.24454,0.163097 -0.27171,0.353217 -1.01847,0.448164 -0.74677,0.09495 -2.21338,0.09495 -3.2726,-0.10866 -1.05923,-0.203608 -1.71105,-0.611 -2.70243,-0.814796 -0.99137,-0.203795 -2.32218,-0.203795 -3.78882,-0.35315 -1.46663,-0.149355 -3.06903,-0.448108 -4.18268,-0.46174 -1.11366,-0.01363 -1.73833,0.257962 -2.45805,0.502406 -0.71971,0.244444 -1.53449,0.461719 -2.36283,0.258148 -0.82833,-0.203571 -1.67027,-0.828238 -2.68881,-1.086378 -1.01854,-0.258139 -2.21355,-0.149502 -3.53078,-0.353138 -1.31724,-0.203637 -2.75669,-0.719666 -4.34557,-1.140677 -1.58888,-0.421012 -3.32708,-0.746925 -5.01107,-0.719811 -1.68399,0.02711 -3.31355,0.407345 -4.61731,0.923393 -1.30375,0.516049 -2.28149,1.16787 -3.24077,1.37705 -0.95929,0.20918 -1.90029,-0.0244 -2.64732,0.01628 -0.74703,0.04068 -1.29976,0.355739 -1.45759,0.813829 -0.15784,0.458091 0.0792,1.058803 0.1863,1.529715 0.10709,0.470911 0.0844,0.812064 -0.13168,1.124658 -0.21603,0.312594 -0.62542,0.596891 -0.89271,1.012094 -0.2673,0.415202 -0.39239,0.961052 -0.26722,1.808346 0.12517,0.847294 0.50044,1.995851 0.87926,2.957587 0.37882,0.961735 0.74617,1.706315 0.86432,2.447977 0.11815,0.741663 -0.0202,1.465308 -0.57226,1.699474 -0.55208,0.234166 -1.51817,-0.02105 -2.07376,0.09486 -0.55558,0.115901 -0.70018,0.602803 -0.5854,1.0805 0.11479,0.477698 0.48868,0.946016 0.74136,1.33634 0.25268,0.390323 0.38424,0.702603 0.20154,0.970251 -0.1827,0.267647 -0.67963,0.491016 -0.79059,0.835119 -0.11095,0.344102 0.16402,0.808547 0.59201,1.530996 0.42799,0.722448 1.00897,1.702861 1.22673,2.438113 0.21775,0.735251 0.0725,1.225457 -0.31669,1.361348 -0.3892,0.135891 -1.02268,-0.08247 -1.45482,-0.395198 -0.43215,-0.31273 -0.66277,-0.719998 -1.15709,-1.090085 -0.49433,-0.370087 -1.25244,-0.702778 -1.89613,-0.985123 -0.64369,-0.282345 -1.17288,-0.514317 -1.56818,-0.569692 -0.39531,-0.05538 -0.65662,0.0661 -0.91782,0.187517 0,0 0,-4e-6 0,-4e-6 z"
       id="path62"
       inkscape:path-effect="#path-effect64"
       inkscape:original-d="m 132.03718,33.613769 c 0,0 -0.5579,0.21425 -0.83726,0.320981 -1.12743,-0.500592 -2.25506,-1.001417 -3.38303,-1.50254 -1.05066,0.433759 -2.10154,0.867234 -3.1527,1.300453 -0.2985,0.516313 -0.59726,1.032343 -0.89628,1.548116 0.79047,0.574266 1.58063,1.14823 2.37058,1.72197 1.363,-0.525606 2.72565,-1.051439 4.08811,-1.577571 -0.49951,1.477824 -0.99927,2.955298 -1.49931,4.432592 0.51994,1.462223 1.0396,2.924127 1.55901,4.385794 0.51631,0.380513 1.03234,0.760743 1.54811,1.140719 0.0817,0.652116 0.16323,1.303941 0.24444,1.955517 0.81508,0.679275 1.62987,1.358262 2.4444,2.036995 0.11939,1.370258 0.23852,2.740169 0.35738,4.109896 1.18484,-0.41911 2.36937,-0.83847 3.55365,-1.2581 1.6299,-1.113317 3.25946,-2.226853 4.8888,-3.340675 0.53078,-0.627639 1.06126,-1.255511 1.5915,-1.883677 -0.4974,-0.48964 -0.99504,-0.97952 -1.49298,-1.469693 -0.52063,-0.275757 -1.0415,-0.551762 -1.56266,-0.828049 -1.02195,0.08619 -2.04409,0.172109 -3.06657,0.25777 -0.58339,-1.303949 -1.167,-2.608061 -1.75092,-3.912534 0.41023,-0.293796 0.82017,-0.587838 1.22987,-0.882163 0.40767,0.652119 0.81507,1.303944 1.2222,1.955517 1.4949,0.797734 2.98946,1.595163 4.48383,2.392371 1.70478,-0.355784 3.4092,-0.711811 5.11346,-1.068124 0.63713,1.212411 1.27396,2.424489 1.91055,3.636364 0.63053,0.277645 1.26076,0.555011 1.89076,0.832128 0.74215,2.070456 1.48399,4.140518 2.22562,6.210445 0.49579,0.643568 0.9913,1.286855 1.48655,1.929871 0.43484,-0.515784 0.86938,-1.031814 1.30368,-1.548116 -0.0269,-1.113317 -0.0541,-2.226853 -0.0815,-3.340675 0.13607,-0.27134 0.27186,-0.542935 0.4074,-0.814797 1.21296,-1.237427 2.42559,-2.475039 3.63803,-3.713006 0.90609,-0.255872 1.81186,-0.511992 2.7174,-0.768388 0.66164,0.953751 1.32297,1.907184 1.98408,2.860407 0.0786,0.538861 0.15688,1.077419 0.23493,1.61576 0.44448,0.102758 0.88866,0.205245 1.33259,0.307469 0.22717,0.259152 0.45408,0.518041 0.68074,0.77667 0.31576,0.232162 0.63124,0.464052 0.94647,0.695682 0.50112,0.0063 1.00196,0.01224 1.50256,0.01796 0.65211,0.787921 1.30394,1.575543 1.95551,2.362917 0.29903,0.299029 0.59779,0.597783 0.89628,0.896278 0.84224,-0.461465 1.68418,-0.923173 2.52588,-1.385157 -0.18986,-0.977514 -0.37998,-1.955252 -0.57036,-2.933277 -0.97786,-0.760228 -1.95594,-1.520679 -2.93433,-2.281436 0.33662,-0.836669 0.67296,-1.673554 1.00905,-2.510753 1.64446,0.110516 3.28854,0.22076 4.93247,0.330747 0.87193,-0.875524 1.74354,-1.751269 2.61492,-2.627303 0.16323,-1.22196 0.27186,-2.389812 0.4074,-3.585115 -1.17302,-0.93614 -2.34625,-1.872489 -3.51981,-2.809165 0.60319,-0.557158 1.20609,-1.114557 1.80873,-1.672228 0.19956,-0.620646 0.39884,-1.24152 0.59787,-1.862696 0.47025,0.707691 0.9402,1.415065 1.40994,2.122244 0.42631,0.702023 0.82573,1.359929 1.27809,2.105191 0.71218,-0.490917 1.34046,-0.924392 2.01029,-1.38698 -0.7981,-1.049462 -1.62017,-2.130355 -2.43068,-3.195958 0.15866,-0.564024 0.31704,-1.128287 0.47517,-1.692833 0.70643,-0.05406 1.41258,-0.108376 2.11847,-0.162962 0.0325,-1.628104 0.0647,-3.256374 0.0966,-4.885009 -0.76527,-0.788651 -1.53077,-1.577534 -2.29655,-2.366697 -0.6462,0.02365 -1.29263,0.04702 -1.93935,0.07014 -0.5316,-0.25587 -1.06345,-0.51199 -1.59558,-0.768389 0.33123,-0.971212 0.66218,-1.942629 0.99288,-2.914374 1.02452,0.06376 2.04871,0.127242 3.07272,0.190469 0.66781,0.07011 1.3353,0.139954 2.00258,0.209537 0.22013,-0.646607 0.43998,-1.293428 0.65958,-1.940564 0.34907,0.144258 0.69786,0.28824 1.0464,0.431969 0.37623,0.01317 0.75217,0.02607 1.12787,0.03871 0.23781,-0.267793 0.47534,-0.535835 0.71261,-0.804154 0.39885,0.313237 0.79741,0.626196 1.19573,0.938908 -0.48772,0.867572 -0.97566,1.734823 -1.46391,2.601866 1.2706,1.300761 2.54085,2.601177 3.81091,3.901401 0.51284,-0.27278 1.02539,-0.54581 1.53771,-0.81912 -0.35196,-0.867431 -0.70416,-1.735093 -1.05664,-2.603035 -0.32566,-0.325661 -0.65157,-0.651574 -0.97776,-0.977758 -0.24418,-0.27134 -0.48862,-0.542934 -0.73332,-0.814799 0.57064,-0.379982 1.14098,-0.760214 1.71108,-1.140718 0.47006,0.176429 0.93984,0.352585 1.40938,0.528485 0.15515,-0.338862 0.31003,-0.677978 0.46465,-1.017364 0.37743,-0.119393 0.75457,-0.239042 1.13148,-0.358964 -0.28982,-0.681338 -0.57989,-1.3629 -0.87024,-2.044756 -1.1045,-0.570513 -2.20923,-1.141267 -3.31427,-1.712314 -1.37216,-0.365968 -2.74453,-0.732187 -4.11719,-1.098677 -0.46147,0.136067 -0.92318,0.271864 -1.38516,0.407399 -0.0269,0.190389 -0.0541,0.380504 -0.0815,0.57036 -1.4664,2.64e-4 -2.93301,2.64e-4 -4.39991,0 -0.65159,-0.407143 -1.30342,-0.814534 -1.95552,-1.222198 -1.3306,2.64e-4 -2.66141,2.64e-4 -3.99251,0 -1.60221,-0.298501 -3.20461,-0.597255 -4.80731,-0.896279 -0.62443,0.27187 -1.2491,0.543464 -1.87404,0.814799 -0.81455,0.217548 -1.62933,0.434824 -2.4444,0.651839 -0.84171,-0.624427 -1.68365,-1.249094 -2.52587,-1.874037 -1.1948,0.108906 -2.38981,0.217544 -3.58512,0.325919 -1.43924,-0.515785 -2.87869,-1.031813 -4.31843,-1.548117 -1.73801,-0.325661 -3.47621,-0.651574 -5.21471,-0.977759 -1.62937,0.380512 -3.25893,0.760744 -4.88879,1.140719 -0.97752,0.652116 -1.95525,1.303942 -2.93328,1.955516 -0.9408,-0.233334 -1.8818,-0.466917 -2.82312,-0.700778 -0.55251,0.315343 -1.10524,0.630406 -1.65827,0.945218 0.23732,0.601001 0.47437,1.201713 0.71116,1.802172 -0.0225,0.341435 -0.0452,0.68259 -0.0682,1.023489 -0.40914,0.284573 -0.81853,0.568869 -1.22819,0.852907 -0.12483,0.546136 -0.24992,1.091986 -0.37528,1.637581 0.37555,1.14887 0.75082,2.297428 1.12584,3.445745 0.38257,0.775151 0.74992,1.519731 1.12449,2.279217 -0.13808,0.72395 -0.27641,1.447595 -0.41501,2.17102 -0.96591,-0.254967 -1.932,-0.510179 -2.89845,-0.765679 -0.14436,0.487212 -0.28896,0.974115 -0.43384,1.46079 0.37417,0.468601 0.74806,0.936919 1.12169,1.404978 0.13183,0.31256 0.26339,0.62484 0.39469,0.936863 -0.49669,0.223645 -0.99362,0.447014 -1.49084,0.670131 0.27524,0.464725 0.55022,0.929166 0.82493,1.393352 0.58127,0.980712 1.16226,1.961121 1.74298,2.941283 -0.14498,0.490487 -0.29023,0.980691 -0.43574,1.470641 -0.63325,-0.218106 -1.26673,-0.436464 -1.90051,-0.6551 -0.23037,-0.40703 -0.46099,-0.814298 -0.69189,-1.221855 -0.75789,-0.332444 -1.51601,-0.665133 -2.27443,-0.998106 -0.52895,-0.231717 -1.05814,-0.463689 -1.58761,-0.695932 -0.26094,0.121688 -0.7836,0.36426 -0.7836,0.36426 z"
       sodipodi:nodetypes="scccccccccccccccccccccccccccccccccccccccccccccccccccccccccccccccccccccccccccccccccccccccccccccccccccccccccccccccccccss" />
    <path
       style="fill:none;stroke:#000000;stroke-width:0.264583px;stroke-linecap:butt;stroke-linejoin:miter;stroke-opacity:1"
       d="m 191.4957,87.805124 c 0.25334,0.272974 0.54251,0.581634 0.89295,0.650119 0.35045,0.06849 0.76226,-0.102877 1.1793,-0.197565 0.41705,-0.09469 0.83919,-0.112742 1.43149,-0.383456 0.5923,-0.270715 1.35491,-0.794038 2.49052,-1.944703 1.1356,-1.150664 2.64418,-2.928639 3.4793,-4.248595 0.83512,-1.319956 0.99676,-2.182002 0.64667,-3.165266 -0.35009,-0.983265 -1.21214,-2.087766 -1.79706,-2.919759 -0.58492,-0.831993 -0.86987,-1.350091 -0.92246,-1.976739 -0.0526,-0.626647 0.13878,-1.340973 0.04,-2.140748 -0.0988,-0.799775 -0.488,-1.685031 -0.9841,-1.988065 -0.4961,-0.303034 -1.09901,-0.02344 -1.4312,0.709206 -0.33219,0.732642 -0.39349,1.917965 -0.5992,2.604776 -0.20571,0.686812 -0.55591,0.875382 -1.12155,0.660001 -0.56564,-0.215382 -1.34688,-0.834982 -1.6211,-1.468109 -0.27421,-0.633128 -0.0411,-1.279648 -0.18905,-1.710702 -0.14798,-0.431053 -0.67746,-0.646565 -1.31945,-0.619714 -0.64199,0.02685 -1.39629,0.296242 -1.88131,0.660014 -0.48501,0.363771 -0.70053,0.821738 -1.02362,0.956448 -0.32309,0.134709 -0.75412,-0.05387 -1.48163,0.215449 -0.72751,0.269315 -1.75119,0.996667 -2.45168,1.71064 -0.70048,0.713973 -1.07763,1.414385 -1.85876,1.872295 -0.78113,0.457911 -1.96645,0.673421 -2.92286,0.956283 -0.95641,0.282863 -1.68376,0.63307 -2.02056,1.454903 -0.33679,0.821833 -0.28292,2.114909 -0.21556,3.246386 0.0674,1.131477 0.14817,2.101284 -0.0106,2.697957 -0.15882,0.596673 -0.5573,0.820511 -0.6167,1.198802 -0.0594,0.378291 0.22019,0.910602 0.68884,1.06789 0.46865,0.157288 1.12632,-0.06011 2.53277,-0.545969 1.40644,-0.485861 3.56156,-1.240153 4.89514,-1.603802 1.33357,-0.363649 1.84541,-0.336709 2.38419,0.02712 0.53878,0.363831 1.1045,1.064247 1.53548,1.346937 0.43097,0.28269 0.7273,0.147995 0.99674,0.26941 0.26944,0.121414 0.51189,0.498559 0.60506,0.851309 0.0932,0.352751 0.0373,0.681185 0.11825,0.964083 0.081,0.282897 0.29849,0.52019 0.55183,0.793163 z"
       id="path66"
       inkscape:path-effect="#path-effect68"
       inkscape:original-d="m 191.45962,87.769164 c 0.28943,0.308927 0.5786,0.617585 0.86751,0.925991 0.4121,-0.171106 0.82391,-0.342468 1.23547,-0.514102 0.42241,-0.01779 0.84455,-0.03584 1.26644,-0.05416 0.76291,-0.523082 1.52552,-1.046408 2.28789,-1.570009 1.50892,-1.777783 3.0175,-3.555762 4.52585,-5.334039 0.16191,-0.86182 0.32354,-1.723867 0.48492,-2.586199 -0.86182,-1.104281 -1.72387,-2.208782 -2.5862,-3.313568 -0.29608,-0.565478 -0.59241,-1.07732 -0.88901,-1.616376 0.19164,-0.714107 0.38301,-1.428432 0.57413,-2.143067 -0.38895,-0.88505 -0.77813,-1.770307 -1.1676,-2.655889 -0.6027,0.279883 -1.20561,0.559483 -1.80883,0.838836 -0.061,1.185629 -0.12234,2.37095 -0.1839,3.556027 -0.34996,0.188844 -0.70016,0.377417 -1.05064,0.565732 -0.781,-0.619361 -1.56224,-1.238956 -2.34375,-1.858833 0.23343,-0.646299 0.46657,-1.292821 0.69947,-1.93965 -0.52924,-0.215257 -1.05872,-0.430769 -1.58847,-0.646549 -0.75406,0.269666 -1.50836,0.539054 -2.26293,0.808186 -0.21525,0.458248 -0.43077,0.916212 -0.64655,1.37392 -0.43077,-0.188317 -0.8618,-0.376891 -1.2931,-0.565732 -1.02346,0.727649 -2.04714,1.455002 -3.07111,2.182106 -0.3769,0.700709 -0.75404,1.401122 -1.13146,2.101289 -1.18511,0.215784 -2.37042,0.431298 -3.55603,0.646549 -0.72712,0.350486 -1.45447,0.700694 -2.1821,1.050645 0.0541,1.293389 0.10802,2.586463 0.16163,3.879299 0.0811,0.970108 0.16191,1.939915 0.24246,2.909475 -0.39825,0.22412 -0.79673,0.447958 -1.19551,0.671552 0.27989,0.532622 0.55949,1.064932 0.83884,1.597019 0.65796,-0.217139 1.31563,-0.434534 1.97304,-0.652197 2.15548,-0.75406 4.3106,-1.508352 6.4655,-2.262923 0.51213,0.0272 1.02397,0.05414 1.53556,0.08082 0.56601,0.700709 1.13173,1.401125 1.69719,2.101289 0.29661,-0.134437 0.59294,-0.269131 0.88901,-0.404095 0.24273,0.377428 0.48518,0.754573 0.72737,1.131464 -0.0556,0.328708 -0.1115,0.65714 -0.16765,0.985313 0.21779,0.237557 0.43531,0.47485 0.65256,0.711876 z"
       sodipodi:nodetypes="scccccccccccccccccccccccccccccccccss" />
    <path
       sodipodi:nodetypes="ccccccccccccccccccccccccccccccccccccccccccccc"
       style="fill:none;stroke:#000000;stroke-width:0.264583px;stroke-linecap:butt;stroke-linejoin:miter;stroke-opacity:1"
       d="m 53.696164,116.80267 c 0.450281,-0.062 1.350605,-0.18604 0.908492,-0.29488 -0.442114,-0.10885 -2.226688,-0.20256 -2.949536,-0.33411 -0.722849,-0.13156 -0.388104,-0.29872 -1.224384,-0.56105 -0.83628,-0.26232 -2.801791,-0.60674 -3.608573,-1.13771 -0.806782,-0.53098 -0.42928,-1.24417 0.332946,-1.74291 0.762225,-0.49875 1.908625,-0.78278 4.698199,-0.85183 2.789574,-0.069 7.220718,0.0769 9.619786,0.17741 2.399068,0.10053 2.765446,0.1556 3.219462,0.0485 0.454017,-0.10705 0.99581,-0.3761 2.769159,-0.42317 1.77335,-0.0471 4.777933,0.12781 6.593126,-0.31297 1.815193,-0.44078 2.441231,-1.49723 3.791252,-2.61247 1.35002,-1.11524 3.423785,-2.28906 4.526707,-2.5603 1.102921,-0.27124 1.234968,0.35974 1.199118,0.90096 -0.03585,0.54123 -0.239475,0.99281 -0.266308,1.51867 -0.02683,0.52586 0.123003,1.12577 0.276173,1.79745 0.15317,0.67168 0.309682,1.41511 2.853194,2.09973 2.543512,0.68462 7.473597,1.31066 10.955933,0.93889 3.48234,-0.37177 5.51698,-1.74124 9.64519,-2.48467 4.12821,-0.74342 10.34951,-0.8608 15.57318,-1.34993 5.22366,-0.48914 9.44945,-1.34995 12.32546,-1.54551 2.87601,-0.19557 4.40199,0.27396 6.35842,0.56738 1.95642,0.29342 4.34321,0.41081 6.20172,0.0195 1.8585,-0.39133 3.18884,-1.29126 6.08451,-1.526 2.89566,-0.23473 7.35621,0.19567 10.23215,0.37173 2.87593,0.17606 4.16714,0.0978 6.13778,0.11384 1.97064,0.016 4.62051,0.12635 7.06072,0.61198 2.4402,0.48563 4.67045,1.34643 5.97488,2.11677 1.30443,0.77035 1.68306,1.44998 0.94502,1.90333 -0.73804,0.45336 -2.59276,0.68073 -3.71007,0.88716 -1.11731,0.20643 -1.49705,0.39193 -1.7319,0.74423 -0.23485,0.3523 -0.32464,0.87109 -1.31473,1.1358 -0.99009,0.26472 -2.88068,0.27555 -3.60488,0.47675 -0.72421,0.20119 -0.28197,0.59246 0.76337,0.85713 1.04533,0.26468 2.69366,0.40295 3.58998,0.8002 0.89631,0.39724 1.0408,1.05315 0.23658,1.38929 -0.80421,0.33613 -2.55724,0.35276 -3.47291,0.36108 -0.91567,0.008 -0.91567,0.008 -20.85201,0.0279 -19.93634,0.0196 -59.76831,0.0587 -79.82163,0.0587 -20.053319,2e-5 -20.327209,-0.0391 -20.624111,-0.0537 -0.296902,-0.0146 -0.616735,-0.005 -0.974784,-0.0458 -0.35805,-0.0412 -0.75435,-0.13371 -0.966874,-0.35419 -0.212524,-0.22048 -0.240992,-0.56916 -0.125402,-0.84066 0.115589,-0.2715 0.375211,-0.46552 0.720205,-0.59104 0.344993,-0.12551 0.775161,-0.18253 0.990135,-0.21102 0.214975,-0.0285 0.214975,-0.0285 0.665255,-0.0905 z"
       id="path70"
       inkscape:path-effect="#path-effect72"
       inkscape:original-d="m 53.245884,116.8647 c 0.900602,-0.12375 1.800925,-0.24778 2.701017,-0.37206 -1.784375,-0.0934 -3.568946,-0.18716 -5.353814,-0.28114 0.339342,-0.16906 0.674087,-0.33622 1.017213,-0.50796 -2.015882,-0.35302 -3.981393,-0.69743 -5.972357,-1.04653 0.377756,-0.7129 0.755258,-1.42609 1.132523,-2.1396 1.146945,-0.28384 2.293345,-0.56787 3.439844,-0.85226 4.432563,0.14624 8.863708,0.29217 13.295166,0.43786 0.366658,0.0553 0.73303,0.1104 1.099161,0.1652 0.542092,-0.26881 1.083885,-0.53786 1.625447,-0.80719 3.004966,0.17514 6.00955,0.35 9.013928,0.52461 0.626332,-1.05623 1.252373,-2.11267 1.878166,-3.16941 2.074113,-1.17361 4.147878,-2.34744 6.221423,-3.52156 0.132321,0.63129 0.264367,1.26227 0.396159,1.89303 -0.203373,0.45187 -0.406998,0.90345 -0.610899,1.35479 0.150104,0.60019 0.299938,1.2001 0.44951,1.79975 0.156781,0.74372 0.313293,1.48715 0.469543,2.23032 4.930547,0.62633 9.860631,1.25238 14.790552,1.87817 2.034984,-1.36926 4.069624,-2.73873 6.104044,-4.10849 6.22181,-0.11712 12.44311,-0.2345 18.66427,-0.35215 4.22622,-0.86058 8.45201,-1.72139 12.67761,-2.58248 1.52631,0.46981 3.05229,0.93935 4.57803,1.40862 2.38715,0.11765 4.77394,0.23504 7.16051,0.35216 1.33066,-0.89971 2.661,-1.79965 3.9911,-2.69987 4.461,0.43069 8.92155,0.8611 13.38193,1.29124 1.29153,-0.078 2.58274,-0.15624 3.87372,-0.23477 2.65027,0.11058 5.30014,0.22088 7.94988,0.33093 2.23063,0.8611 4.46088,1.7219 6.69097,2.58247 0.37891,0.67993 0.75754,1.35956 1.13593,2.03896 -1.85452,0.22765 -3.70924,0.45503 -5.56425,0.68214 -0.3795,0.18577 -0.75923,0.37127 -1.13926,0.55651 -0.0895,0.5191 -0.17931,1.03788 -0.26937,1.55643 -1.89043,0.0111 -3.78102,0.0219 -5.67198,0.0325 0.44254,0.39156 0.88478,0.78283 1.32678,1.17386 1.64866,0.13854 3.29699,0.27682 4.94508,0.41484 0.14476,0.65619 0.28925,1.3121 0.43348,1.96778 -1.75286,0.0169 -3.50589,0.0336 -5.25923,0.0499 -0.078,2.7e-4 -0.078,2.7e-4 -0.11739,0 -39.83329,0.0394 -79.66526,0.0785 -119.498286,0.11739 -0.27364,-0.0389 -0.547534,-0.078 -0.821698,-0.11739 -0.319599,0.0103 -0.639432,0.0203 -0.959555,0.03 -0.39604,-0.0922 -0.792331,-0.18474 -1.188891,-0.27751 -0.0282,-0.3484 -0.05667,-0.69708 -0.0854,-1.04601 0.259887,-0.19376 0.51951,-0.38778 0.778868,-0.58206 0.430441,-0.0568 0.860616,-0.11376 1.290526,-0.17104 z" />
  </g>
</svg>
