<?xml version="1.0" encoding="UTF-8"?>
<!DOCTYPE svg PUBLIC "-//W3C//DTD SVG 1.1//EN" "http://www.w3.org/Graphics/SVG/1.1/DTD/svg11.dtd">
<!-- Creator: CorelDRAW 2018 (64-Bit) -->
<svg xmlns="http://www.w3.org/2000/svg" xml:space="preserve" width="24in" height="18in" version="1.1" style="shape-rendering:geometricPrecision; text-rendering:geometricPrecision; image-rendering:optimizeQuality; fill-rule:evenodd; clip-rule:evenodd"
viewBox="0 0 24000 18000"
 xmlns:xlink="http://www.w3.org/1999/xlink">
 <defs>
  <style type="text/css">
   <![CDATA[
    .str1 {stroke:#373435;stroke-width:3;stroke-miterlimit:2.61313}
    .str0 {stroke:black;stroke-width:3;stroke-miterlimit:2.61313}
    .fil0 {fill:none}
   ]]>
  </style>
 </defs>
 <g id="Layer_x0020_1">
  <metadata id="CorelCorpID_0Corel-Layer"/>
  <g id="_1318147140848">
   <path class="fil0 str0" d="M705.86 1460.08c-13.87,-7.84 -28.04,-14.35 -42.79,-18.49 -137.96,321.65 -126.42,427.18 -163.07,516.61l0 281.21c73.2,197.93 27.53,409.07 345.94,790.11 28.3,33.86 55.82,35.06 88.19,77.91 156.24,206.83 629.04,391.65 902.76,382.03l1.06 -34.24m1.39 -44.69l1.52 -48.99c-78.47,-77.41 -197.72,-119.74 -282.9,-180.17l-0.76 -319.63c4.3,-10.46 275.07,-135.11 117.98,-523.02 -196.15,-484.31 -765.68,-524.28 -706.78,-10.47 40.94,357.17 195.08,185.71 160.16,592.41 -63.72,-14.82 -271.98,-139.9 -336.04,-183.03l-3.12 -1222.03c-14.67,-9.39 -29.03,-19.7 -43.4,-29.69"/>
   <path class="fil0 str0" d="M3035.2 1485.97l-47.68 25.61 0.65 404.99c-81.17,40.11 -160.53,92.65 -241.24,114.63 -163.51,-252.31 -705.53,100.5 -669.9,579.39 33.93,456.02 623.29,272.18 716.71,-192.54l192.38 -103.43 3.99 409.34 -1067.01 632.55 1.9 54m1.57 44.68l1.3 37.12c330.61,21.04 774.54,-210.05 992.37,-446.69 107.19,-116.44 238.32,-352.83 290.76,-515.16 26.93,-83.37 30.92,-190.2 66.78,-262.86l0 -317.32c-35.32,-79.33 -52.66,-340.89 -167.59,-504.6l-39.85 21.41"/>
   <path class="fil0 str0" d="M791.76 1420.02l38.06 26.76c79.06,-47.44 270.93,-179.7 338.8,-199.62l204.19 121.3c-21.12,228.54 101.58,315.22 299.49,374.31 457.59,136.61 887.63,-228.27 557.5,-528.51 -168.31,-153.07 -376.95,-88.02 -565.98,-87.28l-127.31 -98.87 351.63 -200.33c243.55,122.74 908.02,565.34 1070.65,615.07l40.04 -22.27m35.81 -19.92l39.76 -22.11c-184.72,-286.64 -407.02,-463 -716.56,-584.17 -107.64,-42.14 -274.47,-53.58 -350.78,-86.04l-224.91 0c-233.47,91.77 -444.69,-1.2 -876.04,420.05 -116.69,113.95 -96.07,99.29 -195.2,234.78l38.22 26.87"/>
  </g>
  <line class="fil0 str1" x1="791.76" y1="1420.02" x2="746" y2= "1485.91" />
  <line class="fil0 str1" x1="1837.96" y1="3455.21" x2="1926.57" y2= "3455.2" />
  <line class="fil0 str1" x1="1839.34" y1="3410.52" x2="1925.08" y2= "3410.52" />
  <line class="fil0 str1" x1="3035.2" y1="1485.97" x2="2998.83" y2= "1420.57" />
  <line class="fil0 str1" x1="3034.64" y1="1400.66" x2="3070.33" y2= "1467.1" />
  <line class="fil0 str1" x1="705.86" y1="1460.08" x2="749.13" y2= "1390.04" />
 </g>
</svg>
